<mxfile host="app.diagrams.net" agent="Mozilla/5.0 (Windows NT 10.0; Win64; x64) AppleWebKit/537.36 (KHTML, like Gecko) Chrome/126.0.0.0 Safari/537.36" version="24.7.6">
  <diagram name="Page-1" id="C-l6w9sC7X7-A42-bU4n">
    <mxGraphModel dx="880" dy="426" grid="1" gridSize="10" guides="1" tooltips="1" connect="1" arrows="1" fold="1" page="1" pageScale="1" pageWidth="850" pageHeight="1100" math="0" shadow="0">
      <root>
        <mxCell id="0" />
        <mxCell id="1" parent="0" />
        <mxCell id="OL0ss4EFGrHLpXLoaCRr-1" value="Merge PR to Branch N or N+1" style="whiteSpace=wrap;strokeWidth=2;" vertex="1" parent="1">
          <mxGeometry x="223" y="20" width="222" height="34" as="geometry" />
        </mxCell>
        <mxCell id="OL0ss4EFGrHLpXLoaCRr-2" value="Pass Checks" style="rhombus;strokeWidth=2;whiteSpace=wrap;" vertex="1" parent="1">
          <mxGeometry x="267" y="104" width="133" height="133" as="geometry" />
        </mxCell>
        <mxCell id="OL0ss4EFGrHLpXLoaCRr-3" value="C" style="whiteSpace=wrap;strokeWidth=2;" vertex="1" parent="1">
          <mxGeometry x="182" y="306" width="25" height="34" as="geometry" />
        </mxCell>
        <mxCell id="OL0ss4EFGrHLpXLoaCRr-4" value="D" style="whiteSpace=wrap;strokeWidth=2;" vertex="1" parent="1">
          <mxGeometry x="280" y="306" width="25" height="34" as="geometry" />
        </mxCell>
        <mxCell id="OL0ss4EFGrHLpXLoaCRr-5" value="E" style="whiteSpace=wrap;strokeWidth=2;" vertex="1" parent="1">
          <mxGeometry x="364" y="306" width="24" height="34" as="geometry" />
        </mxCell>
        <mxCell id="OL0ss4EFGrHLpXLoaCRr-6" value="F" style="whiteSpace=wrap;strokeWidth=2;" vertex="1" parent="1">
          <mxGeometry x="450" y="306" width="24" height="34" as="geometry" />
        </mxCell>
        <mxCell id="OL0ss4EFGrHLpXLoaCRr-7" value="Two Levels of User Review" style="rhombus;strokeWidth=2;whiteSpace=wrap;" vertex="1" parent="1">
          <mxGeometry x="214" y="390" width="239" height="239" as="geometry" />
        </mxCell>
        <mxCell id="OL0ss4EFGrHLpXLoaCRr-8" value="Branch N or N+1" style="rhombus;strokeWidth=2;whiteSpace=wrap;" vertex="1" parent="1">
          <mxGeometry x="252" y="699" width="165" height="165" as="geometry" />
        </mxCell>
        <mxCell id="OL0ss4EFGrHLpXLoaCRr-9" value="CI-Base Pipeline: Build Image, Tag N." style="whiteSpace=wrap;strokeWidth=2;" vertex="1" parent="1">
          <mxGeometry x="20" y="932" width="279" height="34" as="geometry" />
        </mxCell>
        <mxCell id="OL0ss4EFGrHLpXLoaCRr-10" value="CI-Base Pipeline: Build Image, Tag N+1." style="whiteSpace=wrap;strokeWidth=2;" vertex="1" parent="1">
          <mxGeometry x="349" y="932" width="296" height="34" as="geometry" />
        </mxCell>
        <mxCell id="OL0ss4EFGrHLpXLoaCRr-11" value="Publish Artifact to GHCR" style="whiteSpace=wrap;strokeWidth=2;" vertex="1" parent="1">
          <mxGeometry x="64" y="1016" width="191" height="34" as="geometry" />
        </mxCell>
        <mxCell id="OL0ss4EFGrHLpXLoaCRr-12" value="Publish Artifact to GHCR" style="whiteSpace=wrap;strokeWidth=2;" vertex="1" parent="1">
          <mxGeometry x="402" y="1016" width="191" height="34" as="geometry" />
        </mxCell>
        <mxCell id="OL0ss4EFGrHLpXLoaCRr-13" value="Trigger CD Pipeline to Dev" style="whiteSpace=wrap;strokeWidth=2;" vertex="1" parent="1">
          <mxGeometry x="58" y="1100" width="204" height="34" as="geometry" />
        </mxCell>
        <mxCell id="OL0ss4EFGrHLpXLoaCRr-14" value="Trigger CD Pipeline to Dev02" style="whiteSpace=wrap;strokeWidth=2;" vertex="1" parent="1">
          <mxGeometry x="387" y="1100" width="219" height="34" as="geometry" />
        </mxCell>
        <mxCell id="OL0ss4EFGrHLpXLoaCRr-15" value="Deploy to Dev with N." style="whiteSpace=wrap;strokeWidth=2;" vertex="1" parent="1">
          <mxGeometry x="74" y="1184" width="172" height="34" as="geometry" />
        </mxCell>
        <mxCell id="OL0ss4EFGrHLpXLoaCRr-16" value="Deploy to Dev02 with N+1." style="whiteSpace=wrap;strokeWidth=2;" vertex="1" parent="1">
          <mxGeometry x="394" y="1184" width="205" height="34" as="geometry" />
        </mxCell>
        <mxCell id="OL0ss4EFGrHLpXLoaCRr-17" value="Functional Testing by Dev Lead" style="whiteSpace=wrap;strokeWidth=2;" vertex="1" parent="1">
          <mxGeometry x="216" y="1268" width="237" height="34" as="geometry" />
        </mxCell>
        <mxCell id="OL0ss4EFGrHLpXLoaCRr-18" value="Create Jira Ticket with PR Number for QA/QA02" style="whiteSpace=wrap;strokeWidth=2;" vertex="1" parent="1">
          <mxGeometry x="154" y="1352" width="360" height="34" as="geometry" />
        </mxCell>
        <mxCell id="OL0ss4EFGrHLpXLoaCRr-19" value="Manual CD Pipeline Trigger to QA/QA02 by DevOps" style="whiteSpace=wrap;strokeWidth=2;" vertex="1" parent="1">
          <mxGeometry x="146" y="1436" width="376" height="34" as="geometry" />
        </mxCell>
        <mxCell id="OL0ss4EFGrHLpXLoaCRr-20" value="Dev Lead Approves Deployment" style="whiteSpace=wrap;strokeWidth=2;" vertex="1" parent="1">
          <mxGeometry x="214" y="1520" width="241" height="34" as="geometry" />
        </mxCell>
        <mxCell id="OL0ss4EFGrHLpXLoaCRr-21" value="Deploy to QA/QA02" style="whiteSpace=wrap;strokeWidth=2;" vertex="1" parent="1">
          <mxGeometry x="257" y="1604" width="154" height="34" as="geometry" />
        </mxCell>
        <mxCell id="OL0ss4EFGrHLpXLoaCRr-22" value="Functional Testing by QA" style="whiteSpace=wrap;strokeWidth=2;" vertex="1" parent="1">
          <mxGeometry x="238" y="1688" width="192" height="34" as="geometry" />
        </mxCell>
        <mxCell id="OL0ss4EFGrHLpXLoaCRr-23" value="Raise Jira Request to Deploy to UAT" style="whiteSpace=wrap;strokeWidth=2;" vertex="1" parent="1">
          <mxGeometry x="198" y="1772" width="272" height="34" as="geometry" />
        </mxCell>
        <mxCell id="OL0ss4EFGrHLpXLoaCRr-24" value="Manual CD Pipeline Trigger to UAT by DevOps" style="whiteSpace=wrap;strokeWidth=2;" vertex="1" parent="1">
          <mxGeometry x="165" y="1856" width="338" height="34" as="geometry" />
        </mxCell>
        <mxCell id="OL0ss4EFGrHLpXLoaCRr-25" value="QA Lead Approves Deployment" style="whiteSpace=wrap;strokeWidth=2;" vertex="1" parent="1">
          <mxGeometry x="217" y="1940" width="234" height="34" as="geometry" />
        </mxCell>
        <mxCell id="OL0ss4EFGrHLpXLoaCRr-26" value="Deploy to UAT" style="whiteSpace=wrap;strokeWidth=2;" vertex="1" parent="1">
          <mxGeometry x="276" y="2024" width="116" height="34" as="geometry" />
        </mxCell>
        <mxCell id="OL0ss4EFGrHLpXLoaCRr-27" value="Acceptance Testing by ATO" style="whiteSpace=wrap;strokeWidth=2;" vertex="1" parent="1">
          <mxGeometry x="231" y="2108" width="207" height="34" as="geometry" />
        </mxCell>
        <mxCell id="OL0ss4EFGrHLpXLoaCRr-28" value="Release Manager Raises Jira Request with CAB Approval" style="whiteSpace=wrap;strokeWidth=2;" vertex="1" parent="1">
          <mxGeometry x="128" y="2192" width="412" height="34" as="geometry" />
        </mxCell>
        <mxCell id="OL0ss4EFGrHLpXLoaCRr-29" value="Manual CD Pipeline Trigger to Production by DevOps" style="whiteSpace=wrap;strokeWidth=2;" vertex="1" parent="1">
          <mxGeometry x="141" y="2276" width="387" height="34" as="geometry" />
        </mxCell>
        <mxCell id="OL0ss4EFGrHLpXLoaCRr-30" value="Prod Approver Group Approves Deployment" style="whiteSpace=wrap;strokeWidth=2;" vertex="1" parent="1">
          <mxGeometry x="172" y="2360" width="324" height="34" as="geometry" />
        </mxCell>
        <mxCell id="OL0ss4EFGrHLpXLoaCRr-31" value="Deploy to Production" style="whiteSpace=wrap;strokeWidth=2;" vertex="1" parent="1">
          <mxGeometry x="251" y="2444" width="165" height="34" as="geometry" />
        </mxCell>
        <mxCell id="OL0ss4EFGrHLpXLoaCRr-32" value="" style="curved=1;startArrow=none;endArrow=block;exitX=0.5;exitY=1;entryX=0.5;entryY=0;rounded=0;" edge="1" parent="1" source="OL0ss4EFGrHLpXLoaCRr-1" target="OL0ss4EFGrHLpXLoaCRr-2">
          <mxGeometry relative="1" as="geometry">
            <Array as="points" />
          </mxGeometry>
        </mxCell>
        <mxCell id="OL0ss4EFGrHLpXLoaCRr-33" value="Code Coverage" style="curved=1;startArrow=none;endArrow=block;exitX=0;exitY=0.87;entryX=0.51;entryY=0.01;rounded=0;" edge="1" parent="1" source="OL0ss4EFGrHLpXLoaCRr-2" target="OL0ss4EFGrHLpXLoaCRr-3">
          <mxGeometry relative="1" as="geometry">
            <Array as="points">
              <mxPoint x="195" y="272" />
            </Array>
          </mxGeometry>
        </mxCell>
        <mxCell id="OL0ss4EFGrHLpXLoaCRr-34" value="Fortify" style="curved=1;startArrow=none;endArrow=block;exitX=0.3;exitY=1;entryX=0.51;entryY=0.01;rounded=0;" edge="1" parent="1" source="OL0ss4EFGrHLpXLoaCRr-2" target="OL0ss4EFGrHLpXLoaCRr-4">
          <mxGeometry relative="1" as="geometry">
            <Array as="points">
              <mxPoint x="293" y="272" />
            </Array>
          </mxGeometry>
        </mxCell>
        <mxCell id="OL0ss4EFGrHLpXLoaCRr-35" value="Mend Scan" style="curved=1;startArrow=none;endArrow=block;exitX=0.71;exitY=1;entryX=0.48;entryY=0.01;rounded=0;" edge="1" parent="1" source="OL0ss4EFGrHLpXLoaCRr-2" target="OL0ss4EFGrHLpXLoaCRr-5">
          <mxGeometry relative="1" as="geometry">
            <Array as="points">
              <mxPoint x="376" y="272" />
            </Array>
          </mxGeometry>
        </mxCell>
        <mxCell id="OL0ss4EFGrHLpXLoaCRr-36" value="CodeQL" style="curved=1;startArrow=none;endArrow=block;exitX=1.01;exitY=0.9;entryX=0.48;entryY=0.01;rounded=0;" edge="1" parent="1" source="OL0ss4EFGrHLpXLoaCRr-2" target="OL0ss4EFGrHLpXLoaCRr-6">
          <mxGeometry relative="1" as="geometry">
            <Array as="points">
              <mxPoint x="462" y="272" />
            </Array>
          </mxGeometry>
        </mxCell>
        <mxCell id="OL0ss4EFGrHLpXLoaCRr-37" value="" style="curved=1;startArrow=none;endArrow=block;exitX=0.51;exitY=1.01;entryX=0.02;entryY=0;rounded=0;" edge="1" parent="1" source="OL0ss4EFGrHLpXLoaCRr-3" target="OL0ss4EFGrHLpXLoaCRr-7">
          <mxGeometry relative="1" as="geometry">
            <Array as="points">
              <mxPoint x="195" y="365" />
            </Array>
          </mxGeometry>
        </mxCell>
        <mxCell id="OL0ss4EFGrHLpXLoaCRr-38" value="" style="curved=1;startArrow=none;endArrow=block;exitX=0.51;exitY=1.01;entryX=0.36;entryY=0;rounded=0;" edge="1" parent="1" source="OL0ss4EFGrHLpXLoaCRr-4" target="OL0ss4EFGrHLpXLoaCRr-7">
          <mxGeometry relative="1" as="geometry">
            <Array as="points">
              <mxPoint x="293" y="365" />
            </Array>
          </mxGeometry>
        </mxCell>
        <mxCell id="OL0ss4EFGrHLpXLoaCRr-39" value="" style="curved=1;startArrow=none;endArrow=block;exitX=0.48;exitY=1.01;entryX=0.65;entryY=0;rounded=0;" edge="1" parent="1" source="OL0ss4EFGrHLpXLoaCRr-5" target="OL0ss4EFGrHLpXLoaCRr-7">
          <mxGeometry relative="1" as="geometry">
            <Array as="points">
              <mxPoint x="376" y="365" />
            </Array>
          </mxGeometry>
        </mxCell>
        <mxCell id="OL0ss4EFGrHLpXLoaCRr-40" value="" style="curved=1;startArrow=none;endArrow=block;exitX=0.48;exitY=1.01;entryX=0.94;entryY=0;rounded=0;" edge="1" parent="1" source="OL0ss4EFGrHLpXLoaCRr-6" target="OL0ss4EFGrHLpXLoaCRr-7">
          <mxGeometry relative="1" as="geometry">
            <Array as="points">
              <mxPoint x="462" y="365" />
            </Array>
          </mxGeometry>
        </mxCell>
        <mxCell id="OL0ss4EFGrHLpXLoaCRr-41" value="Approved" style="curved=1;startArrow=none;endArrow=block;exitX=0.5;exitY=1;entryX=0.5;entryY=0;rounded=0;" edge="1" parent="1" source="OL0ss4EFGrHLpXLoaCRr-7" target="OL0ss4EFGrHLpXLoaCRr-8">
          <mxGeometry relative="1" as="geometry">
            <Array as="points" />
          </mxGeometry>
        </mxCell>
        <mxCell id="OL0ss4EFGrHLpXLoaCRr-42" value="Branch N" style="curved=1;startArrow=none;endArrow=block;exitX=0;exitY=0.83;entryX=0.5;entryY=0.01;rounded=0;" edge="1" parent="1" source="OL0ss4EFGrHLpXLoaCRr-8" target="OL0ss4EFGrHLpXLoaCRr-9">
          <mxGeometry relative="1" as="geometry">
            <Array as="points">
              <mxPoint x="159" y="898" />
            </Array>
          </mxGeometry>
        </mxCell>
        <mxCell id="OL0ss4EFGrHLpXLoaCRr-43" value="Branch N+1" style="curved=1;startArrow=none;endArrow=block;exitX=1;exitY=0.85;entryX=0.5;entryY=0.01;rounded=0;" edge="1" parent="1" source="OL0ss4EFGrHLpXLoaCRr-8" target="OL0ss4EFGrHLpXLoaCRr-10">
          <mxGeometry relative="1" as="geometry">
            <Array as="points">
              <mxPoint x="497" y="898" />
            </Array>
          </mxGeometry>
        </mxCell>
        <mxCell id="OL0ss4EFGrHLpXLoaCRr-44" value="" style="curved=1;startArrow=none;endArrow=block;exitX=0.5;exitY=1.01;entryX=0.5;entryY=0.01;rounded=0;" edge="1" parent="1" source="OL0ss4EFGrHLpXLoaCRr-9" target="OL0ss4EFGrHLpXLoaCRr-11">
          <mxGeometry relative="1" as="geometry">
            <Array as="points" />
          </mxGeometry>
        </mxCell>
        <mxCell id="OL0ss4EFGrHLpXLoaCRr-45" value="" style="curved=1;startArrow=none;endArrow=block;exitX=0.5;exitY=1.01;entryX=0.5;entryY=0.01;rounded=0;" edge="1" parent="1" source="OL0ss4EFGrHLpXLoaCRr-10" target="OL0ss4EFGrHLpXLoaCRr-12">
          <mxGeometry relative="1" as="geometry">
            <Array as="points" />
          </mxGeometry>
        </mxCell>
        <mxCell id="OL0ss4EFGrHLpXLoaCRr-46" value="" style="curved=1;startArrow=none;endArrow=block;exitX=0.5;exitY=1.01;entryX=0.5;entryY=0.01;rounded=0;" edge="1" parent="1" source="OL0ss4EFGrHLpXLoaCRr-11" target="OL0ss4EFGrHLpXLoaCRr-13">
          <mxGeometry relative="1" as="geometry">
            <Array as="points" />
          </mxGeometry>
        </mxCell>
        <mxCell id="OL0ss4EFGrHLpXLoaCRr-47" value="" style="curved=1;startArrow=none;endArrow=block;exitX=0.5;exitY=1.01;entryX=0.5;entryY=0.01;rounded=0;" edge="1" parent="1" source="OL0ss4EFGrHLpXLoaCRr-12" target="OL0ss4EFGrHLpXLoaCRr-14">
          <mxGeometry relative="1" as="geometry">
            <Array as="points" />
          </mxGeometry>
        </mxCell>
        <mxCell id="OL0ss4EFGrHLpXLoaCRr-48" value="" style="curved=1;startArrow=none;endArrow=block;exitX=0.5;exitY=1.01;entryX=0.5;entryY=0.01;rounded=0;" edge="1" parent="1" source="OL0ss4EFGrHLpXLoaCRr-13" target="OL0ss4EFGrHLpXLoaCRr-15">
          <mxGeometry relative="1" as="geometry">
            <Array as="points" />
          </mxGeometry>
        </mxCell>
        <mxCell id="OL0ss4EFGrHLpXLoaCRr-49" value="" style="curved=1;startArrow=none;endArrow=block;exitX=0.5;exitY=1.01;entryX=0.5;entryY=0.01;rounded=0;" edge="1" parent="1" source="OL0ss4EFGrHLpXLoaCRr-14" target="OL0ss4EFGrHLpXLoaCRr-16">
          <mxGeometry relative="1" as="geometry">
            <Array as="points" />
          </mxGeometry>
        </mxCell>
        <mxCell id="OL0ss4EFGrHLpXLoaCRr-50" value="" style="curved=1;startArrow=none;endArrow=block;exitX=0.5;exitY=1.01;entryX=0.2;entryY=0.01;rounded=0;" edge="1" parent="1" source="OL0ss4EFGrHLpXLoaCRr-15" target="OL0ss4EFGrHLpXLoaCRr-17">
          <mxGeometry relative="1" as="geometry">
            <Array as="points">
              <mxPoint x="159" y="1243" />
            </Array>
          </mxGeometry>
        </mxCell>
        <mxCell id="OL0ss4EFGrHLpXLoaCRr-51" value="" style="curved=1;startArrow=none;endArrow=block;exitX=0.5;exitY=1.01;entryX=0.78;entryY=0.01;rounded=0;" edge="1" parent="1" source="OL0ss4EFGrHLpXLoaCRr-16" target="OL0ss4EFGrHLpXLoaCRr-17">
          <mxGeometry relative="1" as="geometry">
            <Array as="points">
              <mxPoint x="497" y="1243" />
            </Array>
          </mxGeometry>
        </mxCell>
        <mxCell id="OL0ss4EFGrHLpXLoaCRr-52" value="" style="curved=1;startArrow=none;endArrow=block;exitX=0.5;exitY=1.01;entryX=0.5;entryY=0.01;rounded=0;" edge="1" parent="1" source="OL0ss4EFGrHLpXLoaCRr-17" target="OL0ss4EFGrHLpXLoaCRr-18">
          <mxGeometry relative="1" as="geometry">
            <Array as="points" />
          </mxGeometry>
        </mxCell>
        <mxCell id="OL0ss4EFGrHLpXLoaCRr-53" value="" style="curved=1;startArrow=none;endArrow=block;exitX=0.5;exitY=1.01;entryX=0.5;entryY=0.01;rounded=0;" edge="1" parent="1" source="OL0ss4EFGrHLpXLoaCRr-18" target="OL0ss4EFGrHLpXLoaCRr-19">
          <mxGeometry relative="1" as="geometry">
            <Array as="points" />
          </mxGeometry>
        </mxCell>
        <mxCell id="OL0ss4EFGrHLpXLoaCRr-54" value="" style="curved=1;startArrow=none;endArrow=block;exitX=0.5;exitY=1.01;entryX=0.5;entryY=0.01;rounded=0;" edge="1" parent="1" source="OL0ss4EFGrHLpXLoaCRr-19" target="OL0ss4EFGrHLpXLoaCRr-20">
          <mxGeometry relative="1" as="geometry">
            <Array as="points" />
          </mxGeometry>
        </mxCell>
        <mxCell id="OL0ss4EFGrHLpXLoaCRr-55" value="" style="curved=1;startArrow=none;endArrow=block;exitX=0.5;exitY=1.01;entryX=0.5;entryY=0.01;rounded=0;" edge="1" parent="1" source="OL0ss4EFGrHLpXLoaCRr-20" target="OL0ss4EFGrHLpXLoaCRr-21">
          <mxGeometry relative="1" as="geometry">
            <Array as="points" />
          </mxGeometry>
        </mxCell>
        <mxCell id="OL0ss4EFGrHLpXLoaCRr-56" value="" style="curved=1;startArrow=none;endArrow=block;exitX=0.5;exitY=1.01;entryX=0.5;entryY=0.01;rounded=0;" edge="1" parent="1" source="OL0ss4EFGrHLpXLoaCRr-21" target="OL0ss4EFGrHLpXLoaCRr-22">
          <mxGeometry relative="1" as="geometry">
            <Array as="points" />
          </mxGeometry>
        </mxCell>
        <mxCell id="OL0ss4EFGrHLpXLoaCRr-57" value="" style="curved=1;startArrow=none;endArrow=block;exitX=0.5;exitY=1.01;entryX=0.5;entryY=0.01;rounded=0;" edge="1" parent="1" source="OL0ss4EFGrHLpXLoaCRr-22" target="OL0ss4EFGrHLpXLoaCRr-23">
          <mxGeometry relative="1" as="geometry">
            <Array as="points" />
          </mxGeometry>
        </mxCell>
        <mxCell id="OL0ss4EFGrHLpXLoaCRr-58" value="" style="curved=1;startArrow=none;endArrow=block;exitX=0.5;exitY=1.01;entryX=0.5;entryY=0.01;rounded=0;" edge="1" parent="1" source="OL0ss4EFGrHLpXLoaCRr-23" target="OL0ss4EFGrHLpXLoaCRr-24">
          <mxGeometry relative="1" as="geometry">
            <Array as="points" />
          </mxGeometry>
        </mxCell>
        <mxCell id="OL0ss4EFGrHLpXLoaCRr-59" value="" style="curved=1;startArrow=none;endArrow=block;exitX=0.5;exitY=1.01;entryX=0.5;entryY=0.01;rounded=0;" edge="1" parent="1" source="OL0ss4EFGrHLpXLoaCRr-24" target="OL0ss4EFGrHLpXLoaCRr-25">
          <mxGeometry relative="1" as="geometry">
            <Array as="points" />
          </mxGeometry>
        </mxCell>
        <mxCell id="OL0ss4EFGrHLpXLoaCRr-60" value="" style="curved=1;startArrow=none;endArrow=block;exitX=0.5;exitY=1.01;entryX=0.5;entryY=0.01;rounded=0;" edge="1" parent="1" source="OL0ss4EFGrHLpXLoaCRr-25" target="OL0ss4EFGrHLpXLoaCRr-26">
          <mxGeometry relative="1" as="geometry">
            <Array as="points" />
          </mxGeometry>
        </mxCell>
        <mxCell id="OL0ss4EFGrHLpXLoaCRr-61" value="" style="curved=1;startArrow=none;endArrow=block;exitX=0.5;exitY=1.01;entryX=0.5;entryY=0.01;rounded=0;" edge="1" parent="1" source="OL0ss4EFGrHLpXLoaCRr-26" target="OL0ss4EFGrHLpXLoaCRr-27">
          <mxGeometry relative="1" as="geometry">
            <Array as="points" />
          </mxGeometry>
        </mxCell>
        <mxCell id="OL0ss4EFGrHLpXLoaCRr-62" value="" style="curved=1;startArrow=none;endArrow=block;exitX=0.5;exitY=1.01;entryX=0.5;entryY=0.01;rounded=0;" edge="1" parent="1" source="OL0ss4EFGrHLpXLoaCRr-27" target="OL0ss4EFGrHLpXLoaCRr-28">
          <mxGeometry relative="1" as="geometry">
            <Array as="points" />
          </mxGeometry>
        </mxCell>
        <mxCell id="OL0ss4EFGrHLpXLoaCRr-63" value="" style="curved=1;startArrow=none;endArrow=block;exitX=0.5;exitY=1.01;entryX=0.5;entryY=0.01;rounded=0;" edge="1" parent="1" source="OL0ss4EFGrHLpXLoaCRr-28" target="OL0ss4EFGrHLpXLoaCRr-29">
          <mxGeometry relative="1" as="geometry">
            <Array as="points" />
          </mxGeometry>
        </mxCell>
        <mxCell id="OL0ss4EFGrHLpXLoaCRr-64" value="" style="curved=1;startArrow=none;endArrow=block;exitX=0.5;exitY=1.01;entryX=0.5;entryY=0.01;rounded=0;" edge="1" parent="1" source="OL0ss4EFGrHLpXLoaCRr-29" target="OL0ss4EFGrHLpXLoaCRr-30">
          <mxGeometry relative="1" as="geometry">
            <Array as="points" />
          </mxGeometry>
        </mxCell>
        <mxCell id="OL0ss4EFGrHLpXLoaCRr-65" value="" style="curved=1;startArrow=none;endArrow=block;exitX=0.5;exitY=1.01;entryX=0.5;entryY=0.01;rounded=0;" edge="1" parent="1" source="OL0ss4EFGrHLpXLoaCRr-30" target="OL0ss4EFGrHLpXLoaCRr-31">
          <mxGeometry relative="1" as="geometry">
            <Array as="points" />
          </mxGeometry>
        </mxCell>
      </root>
    </mxGraphModel>
  </diagram>
</mxfile>
